<svg xmlns="http://www.w3.org/2000/svg" width="23.843" height="22.023" viewBox="0 0 23.843 22.023">
  <g id="_353441_bubble_double_round_speech_chat_icon" data-name="353441_bubble_double_round_speech_chat_icon" transform="translate(-5.683 -7.69)">
    <path id="Path_2709" data-name="Path 2709" d="M27.662,7.69a8.975,8.975,0,0,0-.115,17.949v3.819l6.133-6.133A8.976,8.976,0,0,0,27.662,7.69Z" transform="translate(-7.113 0)" fill="#fff"/>
    <path id="Path_2710" data-name="Path 2710" d="M13.021,31.884V30.795l-.895-.011A4.691,4.691,0,0,1,10.8,21.612a9.788,9.788,0,0,1,.534-1.959,6.5,6.5,0,0,0-.123,12.868v3.736l4.471-4.471a9.98,9.98,0,0,1-1.505-1.056Z" transform="translate(0 -6.544)" fill="#fff"/>
  </g>
</svg>
