<svg xmlns="http://www.w3.org/2000/svg" width="47.42" height="41.124" viewBox="0 0 47.42 41.124">
  <g id="Group_7028" data-name="Group 7028" transform="translate(-135.287 -382.573)">
    <g id="Group_7028-2" data-name="Group 7028" transform="translate(135.287 382.573)">
      <path id="Path_88366" data-name="Path 88366" d="M301.783,403.135a14.177,14.177,0,1,1-14.177-14.177A14.177,14.177,0,0,1,301.783,403.135Zm6.385,0A20.562,20.562,0,1,0,287.606,423.7,20.562,20.562,0,0,0,308.168,403.135Z" transform="translate(-267.044 -382.573)" fill="#039759"/>
      <path id="Path_88369" data-name="Path 88369" d="M447.227,413.262c2.144,1.621,2.964,1.849,4.758,4.3,2.933,4,2.5,5.655,3.371,6.417s4.858,1.378,7.577-2.1,6.96-13.087,12.4-18.851,7.975-7.432,9.607-8.3-3.538-.685-13.7,7.4a63.289,63.289,0,0,0-12.072,13.377,18.651,18.651,0,0,0-4.568-7.069C451.441,405.595,443.665,410.57,447.227,413.262Z" transform="translate(-437.815 -393.81)" fill="#039759"/>
    </g>
  </g>
</svg>
