<svg xmlns="http://www.w3.org/2000/svg" width="22.816" height="22.776" viewBox="0 0 22.816 22.776">
  <path id="_8665611_location_crosshairs_icon" data-name="8665611_location_crosshairs_icon" d="M21.39,9.982H19.836a8.543,8.543,0,0,0-7-7V1.386A1.383,1.383,0,0,0,11.448,0,1.482,1.482,0,0,0,9.982,1.386V2.98a8.542,8.542,0,0,0-7,7H1.386A1.409,1.409,0,0,0,0,11.368a1.481,1.481,0,0,0,1.386,1.466H2.94a8.633,8.633,0,0,0,7.042,7v1.554a1.382,1.382,0,0,0,1.386,1.387,1.451,1.451,0,0,0,1.466-1.386V19.836a8.542,8.542,0,0,0,7-7h1.554a1.426,1.426,0,1,0,0-2.852Zm-9.982,7.13a5.7,5.7,0,1,1,5.7-5.7A5.7,5.7,0,0,1,11.408,17.112Zm0-9.625a3.921,3.921,0,1,0,3.921,3.921A3.922,3.922,0,0,0,11.408,7.486Z" fill="#039759"/>
</svg>
