<svg xmlns="http://www.w3.org/2000/svg" width="20.748" height="25.935" viewBox="0 0 20.748 25.935">
  <g id="Group_776" data-name="Group 776" transform="translate(-137.126 -355)">
    <path id="Path_2690" data-name="Path 2690" d="M22.155,2V20.025a5.323,5.323,0,0,1-10.646,0c.244-11.413-3.388-9.894-2.594-.013a7.917,7.917,0,1,0,15.833.013V2Z" transform="translate(133.126 353)" fill="#cdcfce"/>
    <path id="Path_2690-2" data-name="Path 2690" d="M11.508,17.431a5.187,5.187,0,0,0,4.163-5.057V9.781h1.3V7.187H4V9.781H5.3v2.594a5.187,5.187,0,0,0,3.618,4.915C15.765,17.641,8.156,17.275,11.508,17.431Z" transform="translate(133.126 353)" fill="#cdcfce"/>
    <path id="Path_2691" data-name="Path 2691" d="M-.266,0H2.328V5.188H-.266Z" transform="translate(140 355)" fill="#cdcfce"/>
    <path id="Path_2692" data-name="Path 2692" d="M-.266,0H2.328V5.188H-.266Z" transform="translate(145 355)" fill="#cdcfce"/>
  </g>
</svg>
