<svg xmlns="http://www.w3.org/2000/svg" width="62" height="62.285" viewBox="0 0 62 62.285">
  <g id="Group_771" data-name="Group 771" transform="translate(-246 -261)">
    <g id="_5964548_call_mobile_phone_technology_icon" data-name="5964548_call_mobile_phone_technology_icon" transform="translate(245.715 261)">
      <path id="Path_2667" data-name="Path 2667" d="M91.764,34.254l-7.786,4.272a2.53,2.53,0,0,1-2.433-4.433,2.239,2.239,0,0,1,.331-.151l8.311-3.119a1.893,1.893,0,0,1,1.577,3.431Z" transform="translate(-41.236 -15.763)" fill="#ffc298"/>
      <path id="Path_2668" data-name="Path 2668" d="M91.8,49.077l-7.445,2.088a2.5,2.5,0,1,1-1.343-4.808,2.608,2.608,0,0,1,.38-.073l7.674-.915a1.9,1.9,0,0,1,.735,3.708Z" transform="translate(-41.682 -23.287)" fill="#ffc298"/>
      <path id="Path_2669" data-name="Path 2669" d="M26.73,94.957l1.805-3.494s2.3-.628,8.6,2.842,6.885,5.406,6.885,5.406-1.46,2.92-2.209,2.92C39.824,102.772,30.068,97.054,26.73,94.957Z" transform="translate(-13.723 -46.934)" fill="#892e1d"/>
      <path id="Path_2670" data-name="Path 2670" d="M91.963,58.506,87.1,57.7l1.8-.326-2.988,1.6a1.9,1.9,0,0,1-2.122-3.124l2.574-2.165a1.805,1.805,0,0,1,1.7-.345h.073l4.71,1.489a1.893,1.893,0,0,1-.881,3.669Z" transform="translate(-42.665 -27.34)" fill="#ffc298"/>
      <path id="Path_2671" data-name="Path 2671" d="M90.38,71.257l-7.523,1.071a2.229,2.229,0,1,1-.628-4.413h.2l7.591-.394a1.888,1.888,0,0,1,.36,3.737Z" transform="translate(-41.233 -34.665)" fill="#ffc298"/>
      <path id="Path_2672" data-name="Path 2672" d="M40.2,44.53s-4.248,3.518-5.708,6.516-2.92,23-2.92,23L42.533,80.5a25.566,25.566,0,0,1,2.92-5.732c1.834-2.56,7.3-4.321,8.661-7.464S52.4,48.034,52.465,47.562,40.2,44.53,40.2,44.53Z" transform="translate(-16.208 -22.862)" fill="#ffc298"/>
      <path id="Path_2673" data-name="Path 2673" d="M46.773,50.76s-3.7,4.53-3.455,7.581a15.484,15.484,0,0,0,1.353,5.241l3.645-6.949Z" transform="translate(-22.233 -26.06)" fill="#e1927a"/>
      <path id="Path_2674" data-name="Path 2674" d="M50.334,78.9s-.243,6.258-2.6,8.618A81.234,81.234,0,0,0,42.12,94.19l5.839,3.45a25.566,25.566,0,0,1,2.92-5.732c1.834-2.56,7.3-4.321,8.661-7.464.457-1.071.4-3.64.136-6.584l-4.379.389Z" transform="translate(-21.624 -39.973)" fill="#e1927a"/>
      <rect id="Rectangle_164" data-name="Rectangle 164" width="45" height="27" rx="4" transform="translate(50.285) rotate(90)" fill="#cdcfce"/>
      <rect id="Rectangle_165" data-name="Rectangle 165" width="38" height="21" rx="2.7" transform="translate(47.285 3) rotate(90)" fill="#fff"/>
      <path id="Path_2675" data-name="Path 2675" d="M20.22,98.849s4.467-6.365,4.973-7.3a17.057,17.057,0,0,0,6.89,7.114c3.421,1.606,7.426,2.282,8.593,1.134l-3.367,9.489s-11.3.058-17.089-10.438" transform="translate(-10.381 -47.002)" fill="#cdcfce"/>
      <rect id="Rectangle_166" data-name="Rectangle 166" width="15" height="6" rx="1.97" transform="translate(29.285 31)" fill="#313534"/>
      <path id="Path_2676" data-name="Path 2676" d="M56.545,56.266l-1.761.545-1.771.487c-1.187.326-2.379.628-3.591.91h0l1.382-.569A12.213,12.213,0,0,0,48.18,62.82a62.7,62.7,0,0,0-1.338,6.851,5.167,5.167,0,0,1-10.209-1.606,5.523,5.523,0,0,1,.409-1.343,68.658,68.658,0,0,1,3.708-7.3,23.216,23.216,0,0,1,2.71-3.649,16.058,16.058,0,0,1,3.684-3.041l.618-.365a1.5,1.5,0,0,1,.764-.2h0c1.148-.063,2.306-.151,3.465-.258l1.742-.146,1.713-.2h.1a2.433,2.433,0,0,1,1,4.749Z" transform="translate(-18.775 -26.457)" fill="#ffc298"/>
      <path id="Path_2677" data-name="Path 2677" d="M52.189,113.935a3.406,3.406,0,0,1-1.114,2.331c-.608.487-1.1.292-1.1-.487a3.465,3.465,0,0,1,1.1-2.331C51.693,112.938,52.189,113.157,52.189,113.935Z" transform="translate(-25.655 -58.103)" fill="#3b0b1b"/>
      <rect id="Rectangle_167" data-name="Rectangle 167" width="62" height="62" transform="translate(0.285)" fill="none"/>
    </g>
    <g id="icons" transform="translate(275.479 266.166)">
      <path id="email" d="M11.639,3H2.328A2.335,2.335,0,0,0,0,5.328v5.819a2.335,2.335,0,0,0,2.328,2.328h9.311a2.335,2.335,0,0,0,2.328-2.328V5.328A2.335,2.335,0,0,0,11.639,3Zm.931,3.375L7.973,9.46a1.962,1.962,0,0,1-.989.291,1.962,1.962,0,0,1-.989-.291L1.4,6.375a.615.615,0,0,1-.116-.815.615.615,0,0,1,.815-.116l4.6,3.084a.63.63,0,0,0,.64,0l4.6-3.084a.572.572,0,0,1,.815.175A.635.635,0,0,1,12.57,6.375Z" fill="#313534"/>
    </g>
  </g>
</svg>
