<svg xmlns="http://www.w3.org/2000/svg" width="14.737" height="15.111" viewBox="0 0 14.737 15.111">
  <path id="_216259_info_icon" data-name="216259_info_icon" d="M16.414,13.782,11.983,5.268A2.857,2.857,0,0,0,9.539,3.511,2.858,2.858,0,0,0,7.1,5.266L2.664,13.782a3.655,3.655,0,0,0-.176,3.309,2.728,2.728,0,0,0,2.553,1.531h9a2.728,2.728,0,0,0,2.553-1.53A3.656,3.656,0,0,0,16.414,13.782Zm-6.875-6A1.266,1.266,0,0,1,10.7,9.117a1.264,1.264,0,0,1-1.162,1.34A1.267,1.267,0,0,1,8.377,9.118,1.263,1.263,0,0,1,9.539,7.777Zm1.267,7.31a2.068,2.068,0,0,1-1.55.793c-.038,0-.077,0-.115,0a1.088,1.088,0,0,1-.888-.548,2.02,2.02,0,0,1-.091-1.577l.3-1.055c.169-.59.007-.684-.079-.734a.213.213,0,0,0-.1-.022,1.291,1.291,0,0,0-.531.178.174.174,0,0,1-.233-.058.244.244,0,0,1,.005-.275A2.047,2.047,0,0,1,9.189,11a1.085,1.085,0,0,1,.886.545,2.025,2.025,0,0,1,.093,1.579l-.3,1.055c-.17.589-.007.684.079.734a.21.21,0,0,0,.1.02,1.312,1.312,0,0,0,.534-.177.17.17,0,0,1,.232.059A.245.245,0,0,1,10.806,15.088Z" transform="translate(-2.171 -3.511)" fill="#cdcfce"/>
</svg>
