<svg xmlns="http://www.w3.org/2000/svg" width="15.37" height="14.076" viewBox="0 0 15.37 14.076">
  <g id="Navigator" transform="translate(-29.86 -48.906)">
    <path id="Path_2706" data-name="Path 2706" d="M313.218,49.771a2.954,2.954,0,0,0-4.493,3.806l1.931,2.7a.581.581,0,0,0,.946,0l1.931-2.7A2.945,2.945,0,0,0,313.218,49.771Zm-2.089,3.058a.969.969,0,1,1,.969-.969.969.969,0,0,1-.969.969Z" transform="translate(-268.856 0)" fill="#039759"/>
    <path id="Path_2707" data-name="Path 2707" d="M78.981,125.408a.581.581,0,0,0-.581.581v1.239a2.054,2.054,0,0,1-4.108,0v-5.27a3.216,3.216,0,1,0-6.432,0v2.74a.581.581,0,0,0,1.162,0v-2.74a2.054,2.054,0,1,1,4.108,0v5.27a3.216,3.216,0,1,0,6.432,0v-1.239a.581.581,0,0,0-.581-.581Z" transform="translate(-36.709 -67.463)" fill="#039759"/>
    <path id="Path_2708" data-name="Path 2708" d="M31.732,352.9a1.872,1.872,0,1,0,1.872,1.872A1.872,1.872,0,0,0,31.732,352.9Z" transform="translate(0 -293.665)" fill="#039759"/>
  </g>
</svg>
