<svg xmlns="http://www.w3.org/2000/svg" width="17.902" height="20.15" viewBox="0 0 17.902 20.15">
  <g id="_6646082_alarm_bell_essentials_notification_ui_icon" data-name="6646082_alarm_bell_essentials_notification_ui_icon" transform="translate(-4.004 -3)">
    <g id="Path_2703" data-name="Path 2703" fill="none" stroke-linecap="round" stroke-linejoin="round">
      <path d="M21.759,18.072,20.939,16.8a12.6,12.6,0,0,1-2.164-7.088,5.865,5.865,0,0,0-4.178-5.6,1.763,1.763,0,0,0-3.283,0,5.865,5.865,0,0,0-4.178,5.6A12.6,12.6,0,0,1,4.971,16.8L4.15,18.072A.858.858,0,0,0,4.9,19.415H21.013A.858.858,0,0,0,21.759,18.072Z" stroke="none"/>
      <path d="M 19.87128639221191 17.91540336608887 L 19.68781280517578 17.63185691833496 C 18.10910987854004 15.29928779602051 17.27484321594238 12.56232643127441 17.27484321594238 9.71539306640625 C 17.27484321594238 7.808782577514648 16.01865386962891 6.135222434997559 14.14896297454834 5.550952434539795 C 13.68880271911621 5.407152652740479 13.32580280303955 5.050942420959473 13.17335319519043 4.593582630157471 C 13.16476345062256 4.567812442779541 13.08455276489258 4.500002861022949 12.95483303070068 4.500002861022949 C 12.82511329650879 4.500002861022949 12.74490261077881 4.567812442779541 12.73631286621094 4.593582630157471 C 12.58386325836182 5.050942420959473 12.22086334228516 5.407152652740479 11.76070308685303 5.550952434539795 C 9.891022682189941 6.135222434997559 8.634822845458984 7.808782577514648 8.634822845458984 9.71539306640625 C 8.634822845458984 12.56232643127441 7.800410270690918 15.29950523376465 6.221706390380859 17.6320743560791 L 6.038376331329346 17.91540336608887 L 19.87128639221191 17.91540336608887 M 21.01330375671387 19.41540336608887 L 4.896363258361816 19.41540336608887 C 4.150203227996826 19.41540336608887 3.777132987976074 18.66925239562988 4.150213241577148 18.07232284545898 L 4.970983028411865 16.80386352539062 C 6.388672828674316 14.71463298797607 7.134822845458984 12.25232219696045 7.134822845458984 9.71539306640625 C 7.134822845458984 7.029232501983643 8.925602912902832 4.865382671356201 11.31329345703125 4.119232654571533 C 11.53714275360107 3.447692632675171 12.20868301391602 3.00000262260437 12.95483303070068 3.00000262260437 C 13.70099258422852 3.00000262260437 14.37252330780029 3.447692632675171 14.59637260437012 4.119232654571533 C 16.98407363891602 4.865382671356201 18.77484321594238 7.029232501983643 18.77484321594238 9.71539306640625 C 18.77484321594238 12.25232219696045 19.52099227905273 14.71463298797607 20.93868255615234 16.80386352539062 L 21.75946235656738 18.07232284545898 C 22.13253211975098 18.66925239562988 21.75946235656738 19.41540336608887 21.01330375671387 19.41540336608887 Z" stroke="none" fill="#cdcfce"/>
    </g>
    <path id="Path_2704" data-name="Path 2704" d="M17.969,25A2.985,2.985,0,0,1,12,25" transform="translate(-2.03 -5.585)" fill="none" stroke="#cdcfce" stroke-linecap="round" stroke-linejoin="round" stroke-width="1.5"/>
  </g>
</svg>
