<svg xmlns="http://www.w3.org/2000/svg" width="31.817" height="26" viewBox="0 0 31.817 26">
  <g id="Group_793" data-name="Group 793" transform="translate(-216.091 -355)">
    <path id="Path_2693" data-name="Path 2693" d="M227.87,1407.627v-.755l-.481-1.1-.824-1.236-1.1-1.682-1.373-2.437-1.579-3.4-.172-1.133.961-.481,1.888-.24h1.1l1.1-1.27.481-1.682.446-.755.893-.206h.893l.893.584.446.927h1.3l.79.24.206.618.343.618h1.648l.755.412a7.377,7.377,0,0,0,0,1.236c.069.137.961-.137.961-.137l1.064.137.378.412.446,1.545v2.231a9.93,9.93,0,0,0,0,1.751c.1.172-.034.686,0,.892a2.229,2.229,0,0,1-.275,1.064,1.93,1.93,0,0,0-.378.755c0,.206-.721.618-.721.79a3.62,3.62,0,0,1-.206.824c-.069.172-.412.275-.515.515s-.549.961-.549.961l-.961.172s-2.918.206-2.987.206h-4.051Z" transform="translate(0 -1032)" fill="#cdcfce"/>
    <path id="repairing-icon" d="M5.863,9.623A4.353,4.353,0,0,1,1.4,8.453,5.544,5.544,0,0,1-.014,4.36C3.753,8.735,8.341,3.324,2.78.515,5.472-.759,8.012.437,9.354,2.912a7.667,7.667,0,0,0,1.5,2.2,2.452,2.452,0,0,0,.277.212,2.5,2.5,0,0,1,1.16-1.38A2.242,2.242,0,0,1,13.3,3.707a2.438,2.438,0,0,1,2.413,1.587h0a.6.6,0,0,1,.135-.018h.707a.554.554,0,0,1,.117.013,1.732,1.732,0,0,1,1.553,1.421.518.518,0,0,1,.22-.049h.712a.554.554,0,0,1,.117.013,1.739,1.739,0,0,1,1.585,1.585.777.777,0,0,1,.08,0h.717a.549.549,0,0,1,.114.013,2.069,2.069,0,0,1,1.812,1.882c2.149-.331,4.508-1.631,6.8.717a5.53,5.53,0,0,1,1.414,4.093C28.026,10.589,23.438,16,29,18.81a4.682,4.682,0,0,1-5.939-1.44,9.2,9.2,0,0,1-.722,1.517c-.119.194-.238.391-.4.663v.023a5.758,5.758,0,0,1-.4.608h.495a.777.777,0,0,1,.777.777v4.2a.777.777,0,0,1-.777.777H10.86a.777.777,0,0,1-.777-.777V20.946a.777.777,0,0,1,.777-.777h.259A5.437,5.437,0,0,1,10.842,19l-3.866-6.31v-.016A7.174,7.174,0,0,1,6.2,11.358a3.71,3.71,0,0,1-.334-1.248,3.05,3.05,0,0,1,0-.487ZM10.9,11.415a.546.546,0,0,1-.08-.054c-.329-.259-.686-.554-1-.808L8.476,9.45a1.882,1.882,0,0,0-.8-.4.808.808,0,0,0-.443.016.466.466,0,0,0-.259.259,1.53,1.53,0,0,0-.091.728,2.757,2.757,0,0,0,.259.9A5.737,5.737,0,0,0,7.8,12.055l.031.049,3.928,6.421a.546.546,0,0,1,.088.236h0a3.4,3.4,0,0,0,.419,1.434.645.645,0,0,0,.575.326h6.18a1.856,1.856,0,0,0,1.054-.326,3.4,3.4,0,0,0,.963-1.129l.016-.028c.114-.192.259-.438.406-.676A9.784,9.784,0,0,0,22.7,14.343l-.041-1.763a.727.727,0,0,1,0-.075c0-.023,0-.192,0-.414.016-1.165.034-2.607-1.036-2.788h-.686c0,.329-.026.66-.044.986s-.036.567-.036.834a.518.518,0,0,1-1.036,0c0-.259.021-.577.041-.9.07-1.1.15-2.356-.73-2.514h-.681a.518.518,0,0,1-.111,0c0,.4-.021.81-.047,1.2-.018.29-.034.57-.034.834a.518.518,0,0,1-1.036,0c0-.259.021-.575.041-.9.067-1.1.148-2.356-.73-2.514H15.85a.546.546,0,0,1-.135-.018v2a.518.518,0,1,1-1.036,0V5.766c0-.715-.712-1.036-1.377-1.036a1.194,1.194,0,0,0-.536.129,1.984,1.984,0,0,0-.829,1.828v5.686a.518.518,0,1,1-1.036,0v-.958Zm0-1.843-.487-.2a6.232,6.232,0,0,0-.681-.23l.743.606.425.35V9.579Z" transform="translate(216.11 355)" fill="#cdcfce"/>
    <rect id="Rectangle_187" data-name="Rectangle 187" width="13" height="6" rx="1" transform="translate(226 375)" fill="#cdcfce"/>
  </g>
</svg>
