<svg xmlns="http://www.w3.org/2000/svg" width="18.544" height="20.045" viewBox="0 0 18.544 20.045">
  <g id="_3844474_gear_setting_settings_wheel_icon" data-name="3844474_gear_setting_settings_wheel_icon" transform="translate(-3.974 -3)">
    <g id="XMLID_224_" transform="translate(10.162 9.939)" fill="none" stroke="#cdcfce" stroke-linecap="round" stroke-linejoin="round" stroke-width="1.5">
      <circle cx="3.084" cy="3.084" r="3.084" stroke="none"/>
      <circle cx="3.084" cy="3.084" r="2.334" fill="none"/>
    </g>
    <g id="XMLID_242_" transform="translate(0 0)" fill="none" stroke-linecap="round" stroke-linejoin="round">
      <path d="M22.31,8.679l-.771-1.335a1.542,1.542,0,0,0-2.106-.564l-.406.234a2.313,2.313,0,0,1-3.469-2V4.542A1.541,1.541,0,0,0,14.016,3H12.475a1.541,1.541,0,0,0-1.542,1.542v.469a2.313,2.313,0,0,1-3.469,2l-.406-.234a1.542,1.542,0,0,0-2.106.564L4.181,8.679a1.542,1.542,0,0,0,.564,2.106l.406.234a2.313,2.313,0,0,1,0,4.006l-.406.234a1.542,1.542,0,0,0-.564,2.106L4.952,18.7a1.542,1.542,0,0,0,2.106.564l.406-.234a2.313,2.313,0,0,1,3.469,2V21.5a1.541,1.541,0,0,0,1.542,1.542h1.542A1.541,1.541,0,0,0,15.558,21.5v-.469a2.313,2.313,0,0,1,3.469-2l.406.234a1.542,1.542,0,0,0,2.106-.564l.771-1.335a1.542,1.542,0,0,0-.564-2.106l-.406-.234a2.313,2.313,0,0,1,0-4.006l.406-.234A1.541,1.541,0,0,0,22.31,8.679Z" stroke="none"/>
      <path d="M 12.47453308105469 4.5 C 12.45102310180664 4.5 12.43261337280273 4.518411636352539 12.43261337280273 4.541921615600586 L 12.43261337280273 5.010660171508789 C 12.43261337280273 7.114990234375 10.72057342529297 8.826990127563477 8.616184234619141 8.826990127563477 C 7.953973770141602 8.826990127563477 7.295923233032227 8.649110794067383 6.712734222412109 8.312320709228516 L 6.308294296264648 8.078580856323242 C 6.300613403320312 8.074150085449219 6.29487419128418 8.072420120239258 6.287834167480469 8.072420120239258 C 6.276393890380859 8.072420120239258 6.260692596435547 8.076000213623047 6.250543594360352 8.093601226806641 L 5.479904174804688 9.428350448608398 C 5.467983245849609 9.449010848999023 5.474344253540039 9.474241256713867 5.4954833984375 9.486440658569336 L 5.90057373046875 9.720560073852539 C 7.094232559204102 10.4099006652832 7.806863784790039 11.64425086975098 7.806863784790039 13.0224609375 C 7.806863784790039 14.40067100524902 7.094232559204102 15.6350212097168 5.901002883911133 16.32411193847656 L 5.494373321533203 16.55913162231445 C 5.474344253540039 16.57068061828613 5.467983245849609 16.59591102600098 5.479583740234375 16.61602020263672 L 6.250864028930664 17.95188140869141 C 6.260692596435547 17.96892166137695 6.276393890380859 17.97249984741211 6.287834167480469 17.97249984741211 C 6.293703079223633 17.97249984741211 6.299432754516602 17.97145080566406 6.30720329284668 17.96697235107422 L 6.713144302368164 17.73236083984375 C 7.295772552490234 17.3958911895752 7.95378303527832 17.21800231933594 8.616024017333984 17.21792984008789 C 9.590932846069336 17.21783065795898 10.55661392211914 17.60747146606445 11.26546382904053 18.28695106506348 C 12.0181131362915 19.00842094421387 12.43261337280273 19.98410034179688 12.43261337280273 21.03425979614258 L 12.43261337280273 21.50300025939941 C 12.43261337280273 21.52651023864746 12.45102310180664 21.544921875 12.47453308105469 21.544921875 L 14.01644325256348 21.544921875 C 14.03995323181152 21.544921875 14.05836391448975 21.52651023864746 14.05836391448975 21.50300025939941 L 14.05836391448975 21.03425979614258 C 14.05836391448975 18.92998123168945 15.77039337158203 17.21798133850098 17.87475204467773 17.21792984008789 C 18.53696441650391 17.21791076660156 19.19502258300781 17.39580154418945 19.77824401855469 17.73260116577148 L 20.18268394470215 17.96634101867676 C 20.19036293029785 17.97077178955078 20.19610404968262 17.97249984741211 20.20314407348633 17.97249984741211 C 20.21458435058594 17.97249984741211 20.23028373718262 17.96892166137695 20.24043273925781 17.95132064819336 L 21.01107406616211 16.61659049987793 C 21.02299308776855 16.59592056274414 21.01663398742676 16.57068061828613 20.99549293518066 16.55848121643066 L 20.59040451049805 16.32435989379883 C 19.39674377441406 15.6350212097168 18.68411254882812 14.40067100524902 18.68411254882812 13.0224609375 C 18.68411254882812 11.64425086975098 19.39674377441406 10.4099006652832 20.58997344970703 9.72081184387207 L 20.99660301208496 9.485790252685547 C 21.00219345092773 9.482570648193359 21.01154327392578 9.477180480957031 21.01594352722168 9.460781097412109 C 21.02033233642578 9.444381713867188 21.01511383056641 9.43535041809082 21.01138305664062 9.428890228271484 L 20.2401237487793 8.093061447143555 C 20.23028373718262 8.076000213623047 20.21451377868652 8.072420120239258 20.2030143737793 8.072420120239258 C 20.19722366333008 8.072420120239258 20.19154357910156 8.073471069335938 20.18377304077148 8.077951431274414 L 19.77734375 8.312841415405273 C 19.19476318359375 8.648990631103516 18.53695297241211 8.826671600341797 17.87502288818359 8.826671600341797 C 15.7705135345459 8.826671600341797 14.05836391448975 7.11482048034668 14.05836391448975 5.010660171508789 L 14.05836391448975 4.541921615600586 C 14.05836391448975 4.518411636352539 14.03995323181152 4.5 14.01644325256348 4.5 L 12.47453308105469 4.5 M 12.47453308105469 3 L 14.01644325256348 3 C 14.86835384368896 3 15.55836391448975 3.690010070800781 15.55836391448975 4.541921615600586 L 15.55836391448975 5.010660171508789 C 15.55836296081543 6.790800094604492 17.48576354980469 7.903285980224609 19.02767372131348 7.01361083984375 L 19.43320274353027 6.779241561889648 C 20.17100524902344 6.353670120239258 21.11388397216797 6.605772018432617 21.53946304321289 7.34358024597168 L 22.3104133605957 8.67888069152832 C 22.73676300048828 9.416690826416016 22.48388290405273 10.35957050323486 21.74607276916504 10.78514099121094 L 21.34055328369141 11.01951122283936 C 19.79863357543945 11.90997123718262 19.79863357543945 14.13495063781738 21.34055328369141 15.02541065216064 L 21.74607276916504 15.25978088378906 C 22.48388290405273 15.68535137176514 22.73598289489746 16.62823104858398 22.31042289733887 17.36604118347168 L 21.53946304321289 18.70134162902832 C 21.11389350891113 19.43915176391602 20.1710147857666 19.69125175476074 19.43320274353027 19.26568031311035 L 19.02767372131348 19.03131103515625 C 17.48576164245605 18.14085006713867 15.55836296081543 19.25412178039551 15.55836391448975 21.03425979614258 L 15.55836391448975 21.50300025939941 C 15.55836391448975 22.35491180419922 14.86835384368896 23.044921875 14.01644325256348 23.044921875 L 12.47453308105469 23.044921875 C 11.62262344360352 23.044921875 10.93261337280273 22.35491180419922 10.93261337280273 21.50300025939941 L 10.93261337280273 21.03425979614258 C 10.93261337280273 19.25411987304688 9.005212783813477 18.1408519744873 7.463302612304688 19.03131103515625 L 7.057773590087891 19.26568031311035 C 6.31995964050293 19.69125366210938 5.377084732055664 19.43914985656738 4.951513290405273 18.70134162902832 L 4.180553436279297 17.36604118347168 C 3.754983901977539 16.62823104858398 4.00709342956543 15.68535137176514 4.744903564453125 15.25978088378906 L 5.150423049926758 15.02541065216064 C 6.692342758178711 14.13495063781738 6.692342758178711 11.90997123718262 5.150423049926758 11.01951122283936 L 4.744903564453125 10.78514099121094 C 4.00709342956543 10.35957050323486 3.754983901977539 9.416690826416016 4.180553436279297 8.67888069152832 L 4.951513290405273 7.34358024597168 C 5.377082824707031 6.605775833129883 6.319963455200195 6.353672027587891 7.057773590087891 6.779241561889648 L 7.463302612304688 7.01361083984375 C 9.005210876464844 7.90406608581543 10.93261241912842 6.790802001953125 10.93261337280273 5.010660171508789 L 10.93261337280273 4.541921615600586 C 10.93261337280273 3.690010070800781 11.62262344360352 3 12.47453308105469 3 Z" stroke="none" fill="#cdcfce"/>
    </g>
  </g>
</svg>
