<svg xmlns="http://www.w3.org/2000/svg" width="15.483" height="18.921" viewBox="0 0 15.483 18.921">
  <g id="_2538724_lock_privacy_protect_security_icon" data-name="2538724_lock_privacy_protect_security_icon" transform="translate(-7.998 -4)">
    <path id="Path_88370" data-name="Path 88370" d="M23.135,8.524a12.719,12.719,0,0,1-6.8-4.068l-.275-.314A.43.43,0,0,0,15.743,4h0a.426.426,0,0,0-.318.138L15,4.6A12.752,12.752,0,0,1,8.613,8.459l-.284.069a.427.427,0,0,0-.327.4A17.1,17.1,0,0,0,12.948,20.9c.968,1,2.206,2.017,2.787,2.021h.013c.654-.017,1.931-1.122,2.825-2.064,1.531-1.613,5.07-6,4.9-11.924A.431.431,0,0,0,23.135,8.524ZM16.3,18.117a.437.437,0,0,1-.237.073.428.428,0,0,1-.2-.052.433.433,0,0,1-.228-.378V9.16a.424.424,0,0,1,.2-.361.431.431,0,0,1,.409-.034l4.3,1.935a.434.434,0,0,1,.254.439A10.247,10.247,0,0,1,16.3,18.117Z" fill="#cdcfce"/>
  </g>
</svg>
