<svg xmlns="http://www.w3.org/2000/svg" width="28.008" height="26" viewBox="0 0 28.008 26">
  <g id="Group_780" data-name="Group 780" transform="translate(-288.996 -355)">
    <path id="Path_2696" data-name="Path 2696" d="M297.75,1394.966v1.144l.515,1.056a1.578,1.578,0,0,0,0,.792,4.615,4.615,0,0,1,.172,1.143,6.353,6.353,0,0,1,.558.792c.129.264.6,1.056.6,1.056l.515.484,1.288.616.9.308.987.308,1.588-.308,1.717-1.407s.773-.7.773-1.056.858-2.287.858-2.419.3-1.363.3-1.363v-1.144Z" transform="translate(0 -1032.185)" fill="#cdcfce"/>
    <g id="Group_778" data-name="Group 778" transform="translate(-9)">
      <g id="construction-engineer-icon" transform="translate(297.996 355)">
        <path id="Path_2694" data-name="Path 2694" d="M0,26H7.307V16.988a.754.754,0,0,1,.021-.176C1.242,17.681,1.552,20.489,0,26ZM9.268,7.777V8.912l.387.531a.487.487,0,0,1,.1.267h0a5.87,5.87,0,0,0,1.454,3.968,5.367,5.367,0,0,0,3.011,1.286,4.851,4.851,0,0,0,3.022-1.6A6.437,6.437,0,0,0,18.588,9.7a.5.5,0,0,1,.071-.217h0L19,8.917l.007-1.181,1.017,0-.007,1.288a.507.507,0,0,1-.073.3l-.358.593a7.355,7.355,0,0,1-1.575,4.105,5.871,5.871,0,0,1-3.706,1.96.509.509,0,0,1-.166,0A6.364,6.364,0,0,1,10.5,14.41,6.713,6.713,0,0,1,8.746,9.926l-.372-.511a.513.513,0,0,1-.128-.34v-1.3H9.268ZM20.7,26h7.307c-1.552-5.511-1.242-8.319-7.33-9.186a.74.74,0,0,1,.021.176V26Z" fill="#cdcfce" fill-rule="evenodd"/>
      </g>
      <g id="construction-engineer-icon-2" data-name="construction-engineer-icon" transform="translate(297.996 355)">
        <path id="Path_2694-2" data-name="Path 2694" d="M13.94,0a6.93,6.93,0,0,1,1.42.146l-.087,4.087L16.762.6A6.961,6.961,0,0,1,20.8,5.8h.8v.955h-.711v.014H6.986V6.754H6.4V5.8H7.08A6.962,6.962,0,0,1,11.324.511l1.3,3.661L12.762.1A6.929,6.929,0,0,1,13.94,0Z" fill="#cdcfce" fill-rule="evenodd"/>
      </g>
      <g id="construction-engineer-icon-3" data-name="construction-engineer-icon" transform="translate(297.996 355)">
        <path id="Path_2694-3" data-name="Path 2694" d="M13.227,22.731h1.552v1.552H13.227V22.731Zm0-3.838h1.552v1.552H13.227V18.893ZM8.741,26H19.267V16.988a.685.685,0,0,1,.073-.312L14,16.707l-5.336-.032a.715.715,0,0,1,.073.312V26Z" fill="#cdcfce" fill-rule="evenodd"/>
      </g>
    </g>
  </g>
</svg>
